<?xml version="1.0" encoding="UTF-8"?>
<!DOCTYPE svg PUBLIC "-//W3C//DTD SVG 1.1//EN" "http://www.w3.org/Graphics/SVG/1.1/DTD/svg11.dtd">
<svg xmlns="http://www.w3.org/2000/svg" style="background: transparent; background-color: transparent; color-scheme: dark;" xmlns:xlink="http://www.w3.org/1999/xlink" version="1.1" width="682px" height="200px" viewBox="-0.5 -0.5 682 200"><defs><style type="text/css">@import url(https://fonts.googleapis.com/css2?family=Architects+Daughter:wght@400;500);&#xa;</style></defs><g><g data-cell-id="0"><g data-cell-id="1"><g data-cell-id="il64H22L_fClBAoPNdQJ-2"><g><path d="M 20 20 L 180 20" fill="none" stroke="#000000" stroke-miterlimit="10" pointer-events="stroke" style="stroke: rgb(255, 255, 255);"/></g></g><g data-cell-id="il64H22L_fClBAoPNdQJ-3"><g><path d="M 20 20 L 20 180" fill="none" stroke="#000000" stroke-miterlimit="10" pointer-events="stroke" style="stroke: rgb(255, 255, 255);"/></g></g><g data-cell-id="il64H22L_fClBAoPNdQJ-4"><g><path d="M 180 180 L 20 180" fill="none" stroke="#000000" stroke-miterlimit="10" pointer-events="stroke" style="stroke: rgb(255, 255, 255);"/></g></g><g data-cell-id="il64H22L_fClBAoPNdQJ-5"><g><path d="M 180 180 L 180 20" fill="none" stroke="#000000" stroke-miterlimit="10" pointer-events="stroke" style="stroke: rgb(255, 255, 255);"/></g></g><g data-cell-id="il64H22L_fClBAoPNdQJ-6"><g><path d="M 180 180 L 20 20" fill="none" stroke="#000000" stroke-miterlimit="10" pointer-events="stroke" style="stroke: rgb(255, 255, 255);"/></g></g><g data-cell-id="il64H22L_fClBAoPNdQJ-9"><g><path d="M 120 60 Q 110 60.03 110 75.03 Q 110 90.03 125 90.03 Q 140 90.03 140 75.03 Q 140 60.03 129.12 60.01" fill="none" stroke="#000000" stroke-miterlimit="10" pointer-events="stroke" style="stroke: rgb(255, 255, 255);"/><path d="M 121.12 60 L 129.12 56.01 L 129.11 64.01 Z" fill="#000000" stroke="#000000" stroke-miterlimit="10" pointer-events="all" style="fill: rgb(255, 255, 255); stroke: rgb(255, 255, 255);"/></g></g><g data-cell-id="il64H22L_fClBAoPNdQJ-10"><g><path d="M 69.97 110 Q 59.94 110.03 59.94 125.03 Q 59.94 140.03 74.94 140.03 Q 89.94 140.03 89.94 125.03 Q 89.94 110.03 79.09 110.01" fill="none" stroke="#000000" stroke-miterlimit="10" pointer-events="stroke" style="stroke: rgb(255, 255, 255);"/><path d="M 71.09 110 L 79.09 106.01 L 79.08 114.01 Z" fill="#000000" stroke="#000000" stroke-miterlimit="10" pointer-events="all" style="fill: rgb(255, 255, 255); stroke: rgb(255, 255, 255);"/></g></g><g data-cell-id="il64H22L_fClBAoPNdQJ-13"><g><path d="M 15 15 L 25 25 M 15 25 L 25 15" fill="#0050ef" stroke="#001dbc" stroke-width="2" stroke-miterlimit="10" pointer-events="all" style="fill: rgb(0, 80, 239); stroke: rgb(0, 29, 188);"/></g></g><g data-cell-id="il64H22L_fClBAoPNdQJ-15"><g><rect x="0" y="0" width="40" height="10" fill="none" stroke="none" pointer-events="all"/></g><g><g fill="#000000" font-family="Helvetica" text-anchor="middle" font-size="8px" style="fill: rgb(255, 255, 255);"><text x="20" y="8">(0.0, 1.0)</text></g></g></g><g data-cell-id="il64H22L_fClBAoPNdQJ-16"><g><path d="M 175 15 L 185 25 M 175 25 L 185 15" fill="#0050ef" stroke="#001dbc" stroke-width="2" stroke-miterlimit="10" pointer-events="all" style="fill: rgb(0, 80, 239); stroke: rgb(0, 29, 188);"/></g></g><g data-cell-id="il64H22L_fClBAoPNdQJ-17"><g><rect x="160" y="0" width="40" height="10" fill="none" stroke="none" pointer-events="all"/></g><g><g fill="#000000" font-family="Helvetica" text-anchor="middle" font-size="8px" style="fill: rgb(255, 255, 255);"><text x="180" y="8">(1.0, 1.0)</text></g></g></g><g data-cell-id="il64H22L_fClBAoPNdQJ-18"><g><path d="M 175 175 L 185 185 M 175 185 L 185 175" fill="#0050ef" stroke="#001dbc" stroke-width="2" stroke-miterlimit="10" pointer-events="all" style="fill: rgb(0, 80, 239); stroke: rgb(0, 29, 188);"/></g></g><g data-cell-id="il64H22L_fClBAoPNdQJ-19"><g><rect x="160" y="190" width="40" height="10" fill="none" stroke="none" pointer-events="all"/></g><g><g fill="#000000" font-family="Helvetica" text-anchor="middle" font-size="8px" style="fill: rgb(255, 255, 255);"><text x="180" y="198">(1.0, 0.0)</text></g></g></g><g data-cell-id="il64H22L_fClBAoPNdQJ-20"><g><path d="M 15 175 L 25 185 M 15 185 L 25 175" fill="#0050ef" stroke="#001dbc" stroke-width="2" stroke-miterlimit="10" pointer-events="all" style="fill: rgb(0, 80, 239); stroke: rgb(0, 29, 188);"/></g></g><g data-cell-id="il64H22L_fClBAoPNdQJ-21"><g><rect x="0" y="190" width="40" height="10" fill="none" stroke="none" pointer-events="all"/></g><g><g fill="#000000" font-family="Helvetica" text-anchor="middle" font-size="8px" style="fill: rgb(255, 255, 255);"><text x="20" y="198">(0.0, 0.0)</text></g></g></g><g data-cell-id="il64H22L_fClBAoPNdQJ-23"><g><rect x="220" y="40" width="410" height="55" fill="none" stroke="none" pointer-events="all"/></g><g><g fill="#000000" font-family="&quot;Courier New&quot;" font-size="10px" style="fill: rgb(255, 255, 255);"><text x="220" y="54">std::array&lt;Vertex, 6&gt; vb = {</text><text x="220" y="66">     {0.0, 1.0}, {0.0, 0.0}, {1.0, 0.0},  /* triangle 0 */</text><text x="220" y="78">     {1.0, 0.0}, {1.0, 1.0}, {0.0, 1.0}   /* triangle 1 */</text><text x="220" y="90">};</text></g></g></g><g data-cell-id="il64H22L_fClBAoPNdQJ-25"><g><rect x="220" y="130" width="460" height="70" fill="none" stroke="none" pointer-events="all"/></g><g><g fill="#000000" font-family="&quot;Courier New&quot;" font-size="10px" style="fill: rgb(255, 255, 255);"><text x="220" y="144">std::array&lt;Vertex, 4&gt; vb = {{0.0, 1.0}, {0.0, 0.0}, {1.0, 0.0}, {1.0, 1.0}};</text><text x="220" y="156">std::array&lt;uint32_t, 6&gt; vb = {</text><text x="220" y="168">     0, 1, 2,  /* triangle 0 */</text><text x="220" y="180">     2, 3, 0   /* triangle 1 */</text><text x="220" y="192">};</text></g></g></g><g data-cell-id="il64H22L_fClBAoPNdQJ-26"><g><path d="M 680 100 L 220 100" fill="none" stroke="#000000" stroke-miterlimit="10" pointer-events="stroke" style="stroke: rgb(255, 255, 255);"/></g></g><g data-cell-id="il64H22L_fClBAoPNdQJ-27"><g><rect x="220" y="20" width="190" height="20" fill="none" stroke="none" pointer-events="all"/></g><g><g fill="#000000" font-family="Helvetica" font-size="12px" style="fill: rgb(255, 255, 255);"><text x="222" y="35">without an index buffer:</text></g></g></g><g data-cell-id="il64H22L_fClBAoPNdQJ-29"><g><rect x="220" y="110" width="190" height="20" fill="none" stroke="none" pointer-events="all"/></g><g><g fill="#000000" font-family="Helvetica" font-size="12px" style="fill: rgb(255, 255, 255);"><text x="222" y="125">with an index buffer:</text></g></g></g></g></g></g></svg>